<svg xmlns="http://www.w3.org/2000/svg" viewBox="0 0 197.76 31.93"><title>Air Cairo logo</title><path d="M471.57,387.86a5.72,5.72,0,0,1-4.54,1.84,9.34,9.34,0,0,1-5.55-1.84,8.24,8.24,0,0,1-3.24-4.55,4.72,4.72,0,0,1,.88-4.51,5.61,5.61,0,0,1,4.58-1.89,9.12,9.12,0,0,1,5.51,1.89,7.8,7.8,0,0,1,3.32,4.51,4.65,4.65,0,0,1-1,4.55Zm10.82-4.55a19.23,19.23,0,0,0-7.85-10.77A22,22,0,0,0,461.36,368c-4.7,0-8.27,1.51-10.83,4.51s-3.26,6.56-2.16,10.77a19.49,19.49,0,0,0,7.79,10.78,22.17,22.17,0,0,0,13.18,4.47c4.71,0,8.29-1.52,10.85-4.47a11.28,11.28,0,0,0,2.2-10.78Zm-101.94,3.82-.39,1.05c-.63,1.4-2.8,2.45-4.63,2.45a7,7,0,0,1-5-2.08,5.89,5.89,0,0,1-1.71-4.61,6.28,6.28,0,0,1,2-4.7,6.37,6.37,0,0,1,4.73-2,6.44,6.44,0,0,1,4.74,2l.14.15,3.17-9.15c-1.73-1.24-3.87-2.22-8.06-2.22a15.91,15.91,0,0,0-11.22,27.15,15.83,15.83,0,0,0,7.5,4.34c5.1-.17,8.74-12.39,8.74-12.39Z" transform="translate(-285.12 -368.03)" style="fill:#F7941D"/><path d="M309.19,368.19l10.54,30.44h10.09L319.3,368.26Zm-2.52,0-11,.1-10.52,30.35h9.32l1.08-3.06,5.3-15.3,0,.06,0-.06,2.06,5.93h0l2.61,7.45h0l2,5h9.73Zm35,16.59H336l-2.49-7.24h6.23a5.32,5.32,0,0,1,5,3.6C345.27,383.09,344,384.76,341.71,384.76Zm4.69,9.39,5,4.48h13.16l-10.23-9.26a9.8,9.8,0,0,0,1-8.25,17,17,0,0,0-6.82-9.3,18.89,18.89,0,0,0-11.35-3.64l-15.4.1,10.52,30.36h8.49l-1.53-4.35h5C345,394.28,345.73,394.19,346.4,394.15Zm50.83-26v0H387.11l-6.66,19s-3.64,12.22-8.74,12.39a15.69,15.69,0,0,0,3.74.44c4.72,0,9.94-1.84,11.77-6l2.66-6.69h0l2.09-6,6.1,17.47h9.87l-10.6-30.6ZM433,384.75h-6.3l-2.52-7.29H431a5.39,5.39,0,0,1,5.05,3.62c.54,2-.79,3.67-3.07,3.67Zm12.83,4.64a9.81,9.81,0,0,0,1.05-8.31,17.15,17.15,0,0,0-6.92-9.37A19.25,19.25,0,0,0,428.47,368l-16,.1,10.58,30.55h8.49l-1.48-4.35h5.56c.74,0,1.46-.09,2.15-.13l5.09,4.48h13.35Zm-36.35-21.28h-9.63l10.6,30.59h10.09L410,368.1h-.49Z" transform="translate(-285.12 -368.03)" style="fill:#ffffff"/></svg>